<svg xmlns="http://www.w3.org/2000/svg" viewBox="0 0 64 64" role="img" aria-label="Quick Care favicon">
  <defs>
    <linearGradient id="shieldGradF" x1="0" y1="0" x2="1" y2="1">
      <stop offset="0%" stop-color="#0f9b72"/>
      <stop offset="100%" stop-color="#087f5d"/>
    </linearGradient>
    <linearGradient id="heartGradF" x1="0" y1="0" x2="1" y2="1">
      <stop offset="0%" stop-color="#159f78"/>
      <stop offset="100%" stop-color="#0a7a5a"/>
    </linearGradient>
  </defs>
  <path fill="url(#shieldGradF)" d="M32 3C22.4 3 14.3 4.9 7.7 8.7 6.3 9.5 5.4 11 5.4 12.6V28c0 13.8 8.4 25.2 24 31.9 1.7.7 3.5.7 5.3 0 15.6-6.8 24-18.1 24-31.9V12.6c0-1.6-.9-3.1-2.3-3.9C49.7 4.9 41.6 3 32 3z"/>
  <path fill="#fff" d="M32 10.1c-6.5 0-11.8 5.3-11.8 11.8 0 1.9.5 3.7 1.3 5.3l-.1.1c-3.4 5.5-6.5 9.1-9.5 12.5-1.1 1.2-.2 3.2 1.5 3.2h37.2c1.7 0 2.6-2 1.5-3.2-3-3.4-6.1-7-9.5-12.5l-.1-.1c.9-1.6 1.3-3.4 1.3-5.3 0-6.5-5.3-11.8-11.8-11.8z"/>
  <path fill="url(#heartGradF)" d="M32 17.7c-2.1-2.6-5.1-4.1-8.4-4.1-5.9 0-10.7 4.8-10.7 10.7 0 8.2 9.4 14.4 16.9 20.2 1.1.8 2.6.8 3.7 0 7.5-5.8 16.9-12 16.9-20.2 0-5.9-4.8-10.7-10.7-10.7-3.3 0-6.3 1.5-8.4 4.1z"/>
  <rect x="30" y="24.7" width="4" height="12.6" rx="1" fill="#8fe0a8"/>
  <rect x="25.7" y="29" width="12.6" height="4" rx="1" fill="#8fe0a8"/>
</svg>
